<svg width="129" height="126" viewBox="0 0 129 126" fill="none" xmlns="http://www.w3.org/2000/svg">
<path d="M27.5859 16.5878C23.6859 16.5878 20.5259 19.6737 20.5259 23.4823V103.834H85.1059L89.5259 97.33V16.5878H27.5859Z" fill="#F38E7A"/>
<path d="M33.3659 16.5878H27.5859C23.6859 16.5878 20.5259 19.6737 20.5259 23.4823V103.834H33.3659V16.5878Z" fill="#DB7767"/>
<path d="M27.1659 97.3495C23.0659 97.3495 19.8659 100.943 20.6259 105.045C21.1859 108.189 24.2259 110.338 27.5059 110.338C47.5059 110.338 69.5059 110.338 89.5059 110.338C88.1059 106.119 88.1059 101.568 89.5059 97.3495C69.3859 97.3495 47.2859 97.3495 27.1659 97.3495Z" fill="#D2F0EA"/>
<path d="M76.4661 63.5214L72.9661 66.9393L99.9861 96.9198C101.926 99.0878 105.326 99.1854 107.406 97.1542C109.486 95.1229 109.366 91.8026 107.166 89.9081L76.4661 63.5214Z" fill="#FBD872"/>
<path d="M73.469 61.9666L71.3618 64.0244L73.6528 66.2617L75.76 64.204L73.469 61.9666Z" fill="#F6AF62"/>
<path d="M71.5512 46.0832L55.1182 62.1311L64.961 71.7432L81.394 55.6954L71.5512 46.0832Z" fill="#FBD872"/>
<path d="M52.346 62.1542C51.566 62.9159 51.566 64.1268 52.346 64.8885L62.146 74.4589C62.926 75.2206 64.166 75.2206 64.946 74.4589C65.726 73.6971 65.726 72.4862 64.946 71.7245L55.146 62.1542C54.366 61.412 53.126 61.412 52.346 62.1542Z" fill="#F6AF62"/>
<path d="M71.586 43.3846C70.806 44.1464 70.806 45.3573 71.586 46.119L81.386 55.6893C82.166 56.4511 83.406 56.4511 84.186 55.6893C84.966 54.9276 84.966 53.7167 84.186 52.955L74.386 43.3846C73.606 42.6229 72.346 42.6229 71.586 43.3846Z" fill="#F6AF62"/>
<path d="M69.566 81.2948H45.386C43.186 81.2948 41.386 83.0526 41.386 85.201V88.1893H73.566V85.201C73.566 83.0526 71.786 81.2948 69.566 81.2948Z" fill="white"/>
</svg>
