<svg width="114" height="113" viewBox="0 0 114 113" fill="none" xmlns="http://www.w3.org/2000/svg">
<g clip-path="url(#clip0_192_163)">
<path d="M21.6939 0.69104C16.5005 0.69104 12.2761 4.87808 12.2761 10.0255V94.022C12.2761 95.314 13.328 96.3601 14.6313 96.3601H26.401V0.69104H21.6939Z" fill="#656D78"/>
<path d="M21.6939 87.022C17.7902 87.022 14.6313 90.1596 14.6313 94.022C14.6313 97.8912 17.7902 101.022 21.6939 101.022H99.3798V87.022H21.6939Z" fill="#E6E9ED"/>
<path d="M101.732 3.02563C101.732 1.73692 100.676 0.69104 99.3797 0.69104H26.4011V5.35825V84.691V89.3598H52.7234H99.3797C100.676 89.3598 101.732 88.3141 101.732 87.0219V3.02563Z" fill="#ED5564"/>
<path d="M42.8815 96.3601H24.0458C22.7491 96.3601 21.6938 95.3142 21.6938 94.022C21.6938 92.7368 22.7491 91.6909 24.0458 91.6909H42.8815C44.1815 91.6909 45.2332 92.7368 45.2332 94.022C45.2332 95.3142 44.1815 96.3601 42.8815 96.3601Z" fill="#CCD1D9"/>
<path d="M80.5443 91.6909C79.2476 91.6909 78.1926 92.7368 78.1926 94.022C78.1926 95.314 79.2476 96.3601 80.5443 96.3601H99.3799V91.6909H80.5443Z" fill="#CCD1D9"/>
<path d="M14.6313 19.3582C15.9316 19.3582 16.9832 18.314 16.9832 17.0255C16.9832 15.737 15.9316 14.6912 14.6313 14.6912H12.2761V19.3582H14.6313Z" fill="#434A54"/>
<path d="M14.6313 33.3583C15.9316 33.3583 16.9832 32.3141 16.9832 31.0254C16.9832 29.7367 15.9313 28.691 14.6313 28.691H12.2761V33.3583H14.6313Z" fill="#434A54"/>
<path d="M14.6313 47.3581C15.9316 47.3581 16.9832 46.314 16.9832 45.0253C16.9832 43.7366 15.9313 42.6909 14.6313 42.6909H12.2761V47.3581H14.6313Z" fill="#434A54"/>
<path d="M14.6313 61.36C15.9316 61.36 16.9832 60.3142 16.9832 59.0239C16.9832 57.7352 15.9313 56.6893 14.6313 56.6893H12.2761V61.36H14.6313Z" fill="#434A54"/>
<path d="M14.6313 75.3601C15.9316 75.3601 16.9832 74.3142 16.9832 73.022C16.9832 71.737 15.9313 70.6912 14.6313 70.6912H12.2761V75.3601H14.6313Z" fill="#434A54"/>
<path d="M101.732 101.022C101.732 99.7368 100.676 98.6909 99.3797 98.6909H52.7234H26.4011V103.36H99.3797C100.676 103.36 101.732 102.314 101.732 101.022Z" fill="#ED5564"/>
<path d="M26.401 98.6909H21.6939C19.0972 98.6909 16.9835 96.5992 16.9835 94.022C16.9835 91.4516 19.0974 89.3598 21.6939 89.3598H26.4012V84.691H21.6939C16.5005 84.691 12.2761 88.8744 12.2761 94.022C12.2761 99.1694 16.5005 103.36 21.6939 103.36H26.4012L26.401 98.6909Z" fill="#656D78"/>
<path d="M40.5262 94.022H38.171H28.7566H26.4013H24.0459V110.36C24.0459 111.105 24.4114 111.809 25.0254 112.254C25.6392 112.691 26.4289 112.807 27.1462 112.568L33.4639 110.483L39.7815 112.568C40.0263 112.65 40.2746 112.691 40.5264 112.691C41.0127 112.691 41.4956 112.541 41.9024 112.254C42.5162 111.809 42.8817 111.105 42.8817 110.36V94.022H40.5262Z" fill="#FFCE54"/>
<path d="M61.7154 66.0289C60.4136 66.0289 59.3582 64.9831 59.3582 63.6911V21.6927C59.3582 20.404 60.4134 19.3599 61.7154 19.3599C63.012 19.3599 64.0673 20.404 64.0673 21.6927V63.6911C64.0673 64.9828 63.012 66.0289 61.7154 66.0289Z" fill="#F6BB42"/>
<path d="M75.8405 66.0289H47.5885C46.2883 66.0289 45.2366 64.9831 45.2366 63.6911C45.2366 62.4059 46.2885 61.36 47.5885 61.36H75.8402C77.1369 61.36 78.1921 62.4059 78.1921 63.6911C78.1924 64.9828 77.1371 66.0289 75.8405 66.0289Z" fill="#434A54"/>
<path d="M47.4677 25.6217C47.4642 25.6064 47.4574 25.5926 47.4505 25.5773C47.4368 25.5361 47.4194 25.497 47.4022 25.4576C47.3885 25.4235 47.3746 25.3909 47.3574 25.3568C47.3437 25.3244 47.3263 25.2918 47.3091 25.2594C47.2883 25.2218 47.2676 25.1859 47.247 25.1518C47.2298 25.1244 47.2126 25.0953 47.1919 25.068C47.1678 25.0321 47.1435 24.998 47.1195 24.9637C47.0987 24.9363 47.078 24.9107 47.0574 24.8851C47.0299 24.8527 47.0023 24.8219 46.9747 24.7911C46.9506 24.7637 46.9263 24.7381 46.8987 24.7125C46.8712 24.6852 46.8471 24.6596 46.816 24.634C46.7884 24.6066 46.7573 24.581 46.7228 24.5555C46.6988 24.5349 46.6712 24.5128 46.6436 24.4922C46.6092 24.4666 46.5747 24.4443 46.5401 24.4205C46.5125 24.4017 46.4814 24.3829 46.4538 24.3658C46.4194 24.3452 46.3849 24.3247 46.347 24.3061C46.3125 24.289 46.2814 24.2719 46.247 24.2549C46.2126 24.2396 46.1814 24.2258 46.147 24.2122C46.1055 24.1952 46.0642 24.1781 46.023 24.1643C46.0093 24.1593 45.9954 24.1523 45.9782 24.1472C45.9645 24.1422 45.947 24.1387 45.9298 24.1337C45.8883 24.1201 45.8435 24.1081 45.7987 24.0978C45.7676 24.0893 45.7332 24.0825 45.702 24.0755C45.6572 24.067 45.6157 24.0602 45.5745 24.0532C45.54 24.0482 45.5021 24.0429 45.4677 24.0396C45.4297 24.0361 45.3884 24.0346 45.3505 24.0311C45.3125 24.0293 45.2712 24.0276 45.2333 24.0276C45.1988 24.0276 45.1609 24.0293 45.1264 24.0311C45.0816 24.0328 45.0404 24.0361 44.9989 24.0396C44.9644 24.0431 44.9333 24.0482 44.8989 24.0532C44.8541 24.06 44.8093 24.0667 44.7678 24.0755C44.7367 24.0823 44.7058 24.0891 44.6746 24.0961C44.6298 24.1081 44.5815 24.1199 44.5367 24.1337C44.523 24.1387 44.5056 24.1422 44.4919 24.1472C44.4747 24.1523 44.4643 24.1575 44.4471 24.1626C44.4056 24.1779 44.3643 24.1949 44.3195 24.2122C44.2884 24.2258 44.2575 24.2396 44.2264 24.2549C44.1884 24.2719 44.154 24.289 44.1195 24.3078C44.0851 24.3266 44.0507 24.3454 44.0196 24.3643C43.9884 24.3831 43.9575 24.4019 43.93 24.4224C43.8955 24.4448 43.8611 24.4669 43.8264 24.4924C43.7989 24.513 43.7713 24.5351 43.7437 24.5574C43.7126 24.583 43.6817 24.6071 43.6541 24.6344C43.6229 24.66 43.5989 24.6874 43.5713 24.7147C43.5437 24.7386 43.5197 24.7644 43.4954 24.7917C43.4678 24.8226 43.4402 24.8549 43.4126 24.8875C43.3919 24.9114 43.3711 24.9372 43.3506 24.9628C43.3265 24.9987 43.3023 25.0345 43.2782 25.0704C43.2577 25.0978 43.2405 25.1251 43.223 25.1524C43.2023 25.1866 43.1815 25.2242 43.161 25.2601C43.1438 25.2924 43.1266 25.325 43.1127 25.3574C43.0954 25.3915 43.0815 25.4241 43.0679 25.4583C43.0506 25.4976 43.0334 25.5368 43.0195 25.5779C43.0127 25.5932 43.0058 25.607 43.0023 25.6223L35.9397 46.6223C35.5294 47.846 36.1949 49.1669 37.4296 49.5738C37.6743 49.6558 37.9262 49.6952 38.1745 49.6952C39.1573 49.6952 40.0781 49.0765 40.4056 48.0989L45.2368 33.7402L50.0649 48.0989C50.3924 49.0765 51.3132 49.6952 52.296 49.6952C52.5443 49.6952 52.7962 49.6558 53.0409 49.5738C54.2756 49.1671 54.941 47.846 54.5307 46.6223L47.4677 25.6217Z" fill="#E6E9ED"/>
<path d="M87.4892 46.6216L80.4269 25.6217C80.42 25.6064 80.4132 25.5926 80.4061 25.5773C80.3924 25.5361 80.3785 25.497 80.3646 25.4576C80.351 25.4235 80.3302 25.3909 80.3163 25.3568C80.3026 25.3244 80.2819 25.2918 80.268 25.2577C80.2472 25.2218 80.2265 25.1859 80.2059 25.1518C80.1852 25.1244 80.1715 25.0953 80.1508 25.068C80.13 25.0321 80.1024 24.998 80.0748 24.9637C80.0541 24.9363 80.0333 24.9107 80.0128 24.8851C79.9852 24.8527 79.9645 24.8219 79.9369 24.7911C79.9093 24.7637 79.8817 24.7381 79.8541 24.7125C79.8334 24.6852 79.8058 24.6596 79.7782 24.634C79.7438 24.6066 79.7162 24.581 79.6815 24.5555C79.6539 24.5349 79.6264 24.5128 79.5988 24.4922C79.5712 24.4666 79.5299 24.4443 79.4953 24.4205C79.4677 24.4017 79.4401 24.3829 79.4125 24.3658C79.3781 24.3452 79.3436 24.3247 79.3021 24.3061C79.2745 24.289 79.2401 24.2719 79.2055 24.2549C79.171 24.2396 79.1366 24.2258 79.1019 24.2122C79.0604 24.1952 79.026 24.1781 78.9847 24.1643C78.964 24.1593 78.9503 24.1523 78.9364 24.1472C78.9225 24.1422 78.9022 24.1387 78.8883 24.1337C78.8468 24.1201 78.7987 24.1081 78.7572 24.0978C78.7228 24.0893 78.6883 24.0825 78.6605 24.0755C78.619 24.067 78.5778 24.0602 78.5294 24.0532C78.495 24.0482 78.4606 24.0429 78.4259 24.0396C78.3844 24.0361 78.3431 24.0346 78.3087 24.0311C78.2672 24.0293 78.2328 24.0276 78.1915 24.0276C78.1571 24.0276 78.1156 24.0293 78.0812 24.0311C78.0397 24.0328 77.9984 24.0361 77.9571 24.0396C77.9227 24.0431 77.8882 24.0482 77.8536 24.0532C77.8121 24.06 77.7708 24.0667 77.7225 24.0755C77.6949 24.0823 77.6605 24.0891 77.6329 24.0961C77.5845 24.1081 77.5433 24.1199 77.4949 24.1337C77.4813 24.1387 77.4674 24.1422 77.4466 24.1472C77.4329 24.1523 77.419 24.1593 77.4051 24.1643C77.3636 24.1779 77.3223 24.1952 77.2811 24.2122C77.2466 24.2258 77.2122 24.2396 77.1844 24.2549C77.15 24.2719 77.1155 24.289 77.0809 24.3078C77.0462 24.3266 77.012 24.3454 76.9774 24.366C76.9429 24.3831 76.9153 24.4019 76.8878 24.4207C76.8533 24.4445 76.8189 24.4669 76.7842 24.4924C76.7567 24.513 76.7291 24.5351 76.7015 24.5574C76.6739 24.5813 76.6395 24.6071 76.6119 24.6344C76.5843 24.66 76.5567 24.6856 76.5291 24.713C76.5015 24.7386 76.4739 24.7641 76.4532 24.7915C76.4256 24.8223 76.398 24.853 76.3704 24.8856C76.3497 24.9112 76.3289 24.9367 76.3084 24.9641C76.2808 24.9982 76.2601 25.0323 76.2325 25.0684C76.2188 25.0958 76.198 25.1249 76.1773 25.1522C76.1565 25.1864 76.1358 25.2222 76.1221 25.2581C76.1014 25.2922 76.0877 25.3248 76.0669 25.3572C76.0532 25.3913 76.0393 25.4239 76.0254 25.4581C76.0047 25.4974 75.991 25.5366 75.9771 25.5777C75.9703 25.593 75.9634 25.6068 75.9564 25.6221L68.8938 46.6221C68.4868 47.8458 69.1489 49.1667 70.3834 49.5735C70.6317 49.6556 70.88 49.695 71.1283 49.695C72.1146 49.695 73.0319 49.0763 73.363 48.0987L78.1911 33.74L83.0187 48.0987C83.3495 49.0763 84.2668 49.695 85.2532 49.695C85.5015 49.695 85.7498 49.6556 85.9981 49.5735C87.2341 49.1664 87.903 47.8454 87.4892 46.6216Z" fill="#E6E9ED"/>
<path d="M78.1924 28.6928H45.2366C43.933 28.6928 42.8813 27.6486 42.8813 26.3599C42.8813 25.0712 43.933 24.0271 45.2366 24.0271H78.1924C79.4957 24.0271 80.544 25.0712 80.544 26.3599C80.544 27.6486 79.4957 28.6928 78.1924 28.6928Z" fill="#FFCE54"/>
<path d="M45.2366 56.6928C40.0433 56.6928 35.8191 52.5057 35.8191 47.3599H54.6511C54.6511 52.5057 50.4267 56.6928 45.2366 56.6928Z" fill="#FFCE54"/>
<path d="M78.1925 56.6928C72.999 56.6928 68.7781 52.5057 68.7781 47.3599H87.6068C87.6065 52.5057 83.3854 56.6928 78.1925 56.6928Z" fill="#FFCE54"/>
</g>
<defs>
<clipPath id="clip0_192_163">
<rect width="113" height="112" fill="white" transform="translate(0.503906 0.69104)"/>
</clipPath>
</defs>
</svg>
