<svg width="103" height="103" viewBox="0 0 103 103" fill="none" xmlns="http://www.w3.org/2000/svg">
<g clip-path="url(#clip0_192_188)">
<path d="M51.1636 29.2552V35.7659H62.0146L64.1847 32.5107L62.0146 29.2552H51.1636Z" fill="#95341D"/>
<path d="M94.5678 26C92.1584 26 90.0561 27.3099 88.9303 29.2552H62.0146V35.7659H88.9303C90.0563 37.7113 92.1582 39.0211 94.5678 39.0211C98.1637 39.0211 101.078 36.1064 101.078 32.5105C101.078 28.9146 98.1637 26 94.5678 26Z" fill="#AB5D4A"/>
<path d="M59.8444 69.4042H53.3337L58.7593 84.5956H65.2699V74.8297C65.2699 71.8334 62.8409 69.4042 59.8444 69.4042Z" fill="#AB5D4A"/>
<path d="M53.3336 69.4042H20.7805C17.7841 69.4042 15.355 71.8332 15.355 74.8297V84.5956H58.7592V74.8297C58.7592 71.8334 56.3301 69.4042 53.3336 69.4042Z" fill="#C08577"/>
<path d="M44.6528 49.8724L55.5039 45.532V19.4893L44.6528 15.1489V49.8724Z" fill="#F1866D"/>
<path d="M48.9932 15.1489L25.1208 19.4893V45.532L48.9932 49.8724V15.1489Z" fill="#F5AC51"/>
<path d="M44.6528 8.63831L48.9932 19.4894H55.5039V8.63831H44.6528Z" fill="#792A18"/>
<path d="M48.9932 8.63831H25.1208V19.4894H48.9932V8.63831Z" fill="#95341D"/>
<path d="M44.6528 56.383H55.5039V45.532H48.9932L44.6528 56.383Z" fill="#AB5D4A"/>
<path d="M48.9932 45.532H25.1208V56.383H48.9932V45.532Z" fill="#C08577"/>
<path d="M55.5041 52.0425H48.9934V62.8935H55.5041C58.5005 62.8935 60.9296 60.4645 60.9296 57.468C60.9296 54.4718 58.5005 52.0425 55.5041 52.0425Z" fill="#95341D"/>
<path d="M54.4187 57.468C54.4187 54.4716 51.9897 52.0425 48.9932 52.0425H25.1208C22.1244 52.0425 19.6953 54.4716 19.6953 57.468C19.6953 60.4645 22.1244 62.8935 25.1208 62.8935H48.9932C51.9897 62.8935 54.4187 60.4645 54.4187 57.468Z" fill="#AB5D4A"/>
<path d="M55.5038 2.12756H48.9932V12.9786H55.5038C58.5003 12.9786 60.9294 10.5495 60.9294 7.55309C60.9294 4.55664 58.5003 2.12756 55.5038 2.12756Z" fill="#AB5D4A"/>
<path d="M54.4187 7.55309C54.4187 4.55664 51.9897 2.12756 48.9932 2.12756H25.1208C22.1244 2.12756 19.6953 4.55664 19.6953 7.55309C19.6953 10.5495 22.1244 12.9786 25.1208 12.9786H48.9932C51.9897 12.9786 54.4187 10.5495 54.4187 7.55309Z" fill="#C08577"/>
<path d="M65.2699 78.0852H58.7593L69.6103 100.872H76.121V88.9363C76.121 82.9434 71.2628 78.0852 65.2699 78.0852Z" fill="#95341D"/>
<path d="M58.7591 78.0852H15.355C9.36205 78.0852 4.50391 82.9434 4.50391 88.9363V100.872H69.6102V88.9363C69.6102 82.9434 64.752 78.0852 58.7591 78.0852Z" fill="#AB5D4A"/>
<path d="M61.4719 87.8511C62.3708 87.8511 63.0995 87.1224 63.0995 86.2234C63.0995 85.3245 62.3708 84.5958 61.4719 84.5958C60.5729 84.5958 59.8442 85.3245 59.8442 86.2234C59.8442 87.1224 60.5729 87.8511 61.4719 87.8511Z" fill="black"/>
<path d="M67.9826 94.3617C68.8815 94.3617 69.6102 93.633 69.6102 92.7341C69.6102 91.8352 68.8815 91.1064 67.9826 91.1064C67.0837 91.1064 66.355 91.8352 66.355 92.7341C66.355 93.633 67.0837 94.3617 67.9826 94.3617Z" fill="black"/>
<path d="M78.2912 99.2447H77.7487V88.9362C77.7487 82.6072 73.0115 77.3675 66.8977 76.5671V74.8299C66.8977 70.9407 63.7335 67.7767 59.8445 67.7767H20.7805C16.8916 67.7767 13.7274 70.9407 13.7274 74.8299V76.5671C7.61357 77.3675 2.87634 82.6072 2.87634 88.9362V99.2447H2.33367C1.4348 99.2447 0.706055 99.9733 0.706055 100.872C0.706055 101.771 1.4348 102.5 2.33367 102.5H78.2912C79.1901 102.5 79.9188 101.771 79.9188 100.872C79.9188 99.9733 79.1901 99.2447 78.2912 99.2447ZM6.13158 88.9362C6.13158 83.8503 10.2692 79.7127 15.355 79.7127H21.8657C22.7646 79.7127 23.4933 78.9842 23.4933 78.0851C23.4933 77.186 22.7646 76.4575 21.8657 76.4575H16.9826V74.8299C16.9826 72.7359 18.6865 71.032 20.7805 71.032H59.8443C61.9383 71.032 63.6423 72.7359 63.6423 74.8299V76.4575H28.3763C27.4775 76.4575 26.7487 77.186 26.7487 78.0851C26.7487 78.9842 27.4775 79.7127 28.3763 79.7127H65.2699C70.3557 79.7127 74.4933 83.8503 74.4933 88.9362V99.2447H6.13158V88.9362Z" fill="black"/>
<path d="M94.5679 24.3724C92.0001 24.3724 89.5854 25.599 88.0594 27.6276H57.1317V21.117H57.6741C58.573 21.117 59.3018 20.3884 59.3018 19.4893C59.3018 18.5903 58.573 17.8617 57.6741 17.8617H57.1317V14.4148C60.2383 13.6779 62.5572 10.8821 62.5572 7.55334C62.5572 3.66399 59.393 0.5 55.5041 0.5H25.121C21.2321 0.5 18.0679 3.66399 18.0679 7.55314C18.0679 10.8821 20.3868 13.6777 23.4934 14.4146V17.8615H22.9509C22.052 17.8615 21.3233 18.5901 21.3233 19.4891C21.3233 20.3882 22.052 21.1168 22.9509 21.1168H23.4934V43.904H22.9509C22.052 43.904 21.3233 44.6325 21.3233 45.5316C21.3233 46.4307 22.052 47.1592 22.9509 47.1592H23.4934V50.6061C20.3868 51.343 18.0679 54.1389 18.0679 57.4676C18.0679 61.3567 21.2321 64.5207 25.121 64.5207H55.5041C59.393 64.5207 62.5572 61.3567 62.5572 57.4676C62.5572 54.1387 60.2383 51.343 57.1317 50.6061V47.1592H57.6741C58.573 47.1592 59.3018 46.4307 59.3018 45.5316C59.3018 44.6325 58.573 43.904 57.6741 43.904H57.1317V30.8827H88.9304C89.5113 30.8827 90.0482 30.5729 90.3391 30.0704C91.2112 28.5634 92.8315 27.6274 94.5679 27.6274C97.2605 27.6274 99.4509 29.818 99.4509 32.5105C99.4509 35.2029 97.2605 37.3935 94.5679 37.3935C92.8315 37.3935 91.2112 36.4576 90.3392 34.9505C90.0484 34.4479 89.5115 34.1383 88.9306 34.1383H62.0147C61.1159 34.1383 60.3871 34.8668 60.3871 35.7659C60.3871 36.665 61.1159 37.3935 62.0147 37.3935H88.0594C89.5854 39.4222 92.0001 40.6488 94.5679 40.6488C99.0555 40.6488 102.706 36.9981 102.706 32.5105C102.706 28.0229 99.0555 24.3724 94.5679 24.3724ZM21.3231 7.55314C21.3231 5.45915 23.027 3.75523 25.121 3.75523H55.5041C57.598 3.75523 59.302 5.45915 59.302 7.55314C59.302 9.64713 57.598 11.351 55.5041 11.351H25.121C23.027 11.351 21.3231 9.64733 21.3231 7.55314ZM26.7486 14.6065H53.8762V17.8617H26.7486V14.6065ZM59.302 57.468C59.302 59.562 57.598 61.2659 55.5041 61.2659H25.121C23.027 61.2659 21.3231 59.562 21.3231 57.468C21.3231 55.374 23.027 53.6701 25.121 53.6701H55.5041C57.598 53.6703 59.302 55.374 59.302 57.468ZM53.8764 50.4149H26.7488V47.1596H53.8764V50.4149ZM26.7486 43.9042V21.117H53.8762V43.9042H26.7486Z" fill="black"/>
</g>
<defs>
<clipPath id="clip0_192_188">
<rect width="102" height="102" fill="white" transform="translate(0.706055 0.5)"/>
</clipPath>
</defs>
</svg>
