<svg width="116" height="119" viewBox="0 0 116 119" fill="none" xmlns="http://www.w3.org/2000/svg">
<path d="M47.6699 103.131L42.2678 73.3577L27.8621 78.7327L38.2981 106.28C39.2392 108.716 48.3655 106.448 47.6699 103.131Z" fill="#E4E7ED"/>
<path d="M42.5952 75.2472L42.2677 73.3157L27.821 78.6907L28.7215 81.0004L42.5952 75.2472Z" fill="#C6CBD6"/>
<path d="M51.8853 65.8828L95.9209 68.6964L74.8445 13.8958L44.6006 46.9021C47.3017 53.957 49.1842 58.8282 51.9262 65.8409L51.8853 65.8828Z" fill="#E4E7ED"/>
<path d="M51.8851 65.8828L95.9207 68.6963L94.038 63.7832H51.0667L51.8851 65.8828Z" fill="#C6CBD6"/>
<path d="M45.2553 47.322C44.7643 46.0623 43.5775 45.3063 42.6361 45.7262L17.3853 56.0565C16.4031 56.4345 16.0348 57.8203 16.526 59.0801L20.2093 68.6544L23.8927 78.1868C24.3837 79.4466 25.5705 80.2025 26.5119 79.7826L51.7627 69.4523C52.7449 69.0743 53.1133 67.6885 52.6221 66.4288L48.9387 56.8964L45.2553 47.322Z" fill="#6C7678"/>
<path d="M98.2946 67.3527C98.7447 68.5286 98.3355 69.8303 97.3124 70.2502C96.3302 70.6701 95.1433 70.0402 94.6932 68.8224L73.8211 14.6517C73.371 13.4758 73.7803 12.1741 74.8034 11.7542C75.7856 11.3343 76.9724 12.0061 77.4225 13.182L98.2946 67.3527Z" fill="#6C7678"/>
<path d="M22.9919 75.9193L17.1806 60.8859C6.70366 63.7414 11.2873 80.8744 22.9919 75.9193Z" fill="#E4E7ED"/>
<path d="M98.6627 34.766L91.0507 37.8315C90.6006 37.9995 90.4369 38.6713 90.6824 39.3012C90.9279 39.9311 91.5008 40.309 91.951 40.141L99.563 37.0756C100.013 36.9076 100.177 36.2357 99.9313 35.6059C99.6858 34.976 99.1129 34.5983 98.6627 34.766Z" fill="#FFE356"/>
<path d="M38.0933 105.818L47.6697 103.299C49.0612 102.921 49.7159 105.608 48.3245 105.986L38.7891 108.422C37.4794 108.758 36.7838 106.196 38.0524 105.86L38.0933 105.818Z" fill="#6C7678"/>
<path d="M90.9687 19.5229L86.0576 26.2418C85.7713 26.6198 85.9759 27.2916 86.5078 27.7115C87.0399 28.1314 87.6946 28.1314 87.981 27.7534L92.8921 21.0346C93.1784 20.6566 92.9738 19.9848 92.4419 19.5649C91.9101 19.145 91.2551 19.145 90.9687 19.5229Z" fill="#FFE356"/>
<path d="M103.86 53.453L95.8389 51.8992C95.3888 51.8153 95.1022 51.1852 95.2251 50.5134C95.3479 49.8416 95.8389 49.3795 96.289 49.4636L104.31 51.0174C104.76 51.1013 105.047 51.7314 104.924 52.4032C104.802 53.0751 104.31 53.5371 103.86 53.453Z" fill="#FFE356"/>
<path d="M21.0684 57.0225C20.7409 57.1486 20.3317 56.9806 20.209 56.6445C20.0862 56.3085 20.2499 55.8886 20.5774 55.7628L37.8478 48.9178C38.1753 48.7918 38.5845 48.9598 38.7072 49.2958C38.83 49.6318 38.6663 50.0518 38.3388 50.1776L21.0684 57.0225Z" fill="#E4E7ED"/>
</svg>
